<?xml version="1.0" encoding="utf-8"?>
<!-- Generator: Adobe Illustrator 26.0.0, SVG Export Plug-In . SVG Version: 6.00 Build 0)  -->
<svg version="1.1" id="Layer_1" xmlns="http://www.w3.org/2000/svg" xmlns:xlink="http://www.w3.org/1999/xlink" x="0px" y="0px"
	 viewBox="0 0 700 700" style="enable-background:new 0 0 700 700;" xml:space="preserve">

<path class="st0" d="M558.9,385.6l-64.4-62.7l-6.7-39.2L449.7,310l-65.5,0c-47.6,0-94.6,11.2-137.2,33l-141.7,71.7
	c-4.5,2.2-7.3,6.7-7.3,11.8c0,7.8,7.3,14,15.1,12.9l88.5-12.9l-93.5,26.9c-6.2,1.7-10.1,7.3-10.1,13.4c0,8.4,7.3,15.1,15.7,14
	L303,459l-1.7-19.6c0.6-14,7.8-26.9,19-34.7l29.7-20.7l-23,26.3c-9,10.1-12.9,23.5-11.8,36.4l4.5,53.8c0,0,1.7,27.4,25.8,23
	c16.8-2.8,16.8-30.2,16.8-30.2v-58.2l10.1,10.1l65-1.1c-19-12.9-7.3-52.1-7.3-52.1l3.9,24.6c2.8,18.5,18.5,31.9,37,31.9h60.5
	c17.4,0,33.6-7.8,44.8-20.7l25.8-30.2L558.9,385.6z M465.4,353.1l12.9,35.8l-4.5,1.7l-12.9-35.8L465.4,353.1z M466.5,424.2v-14
	l15.7,14H466.5z M536.5,426.5l-36.4-10.6l1.7-4.5l36.4,10.6L536.5,426.5z"/>
<path class="st0" d="M440.6,213.5v-10.1h-20.2l27.4-22.4h-47v9.5h19.6l-26.9,23L440.6,213.5z"/>
<path class="st0" d="M507.2,254.4v-10.1h-28l34.2-28.6h-55.4v10.1h28l-33.6,28.6L507.2,254.4z"/>
</svg>
